
<svg width="54px" height="54px" viewBox="0 0 54 54" version="1.1" xmlns="http://www.w3.org/2000/svg" xmlns:xlink="http://www.w3.org/1999/xlink">
    <g id="Page-1" stroke="none" stroke-width="1" fill="none" fill-rule="evenodd">
        <g id="Icons" transform="translate(-942.000000, -38.000000)">
            <g id="filter" transform="translate(944.000000, 40.000000)">
                <circle class="svg-main-color--stroke" stroke="#1D00FF" stroke-width="4" cx="25" cy="25" r="25"></circle>
                <path d="M36.9037635,14.7792501 C37.0991217,15.2501692 36.9916076,15.7937541 36.6307071,16.1529996 L27.9277532,24.8556634 C27.7996079,24.9846394 27.634298,25.3831491 27.634298,25.563383 L27.634298,37.7386048 C27.634298,38.2494533 27.3267872,38.7095264 26.8575625,38.9024291 C26.7036173,38.9672522 26.5390877,38.999824 26.3730391,38.999824 C26.0399218,38.999824 25.7192848,38.8683603 25.4812674,38.6303508 L21.7349215,34.8841288 C21.4982982,34.6475132 21.3654313,34.3270816 21.3654313,33.9923703 L21.3654313,25.5633705 C21.3654313,25.3822486 21.2007433,24.9844162 21.0727204,24.8563976 L12.36851,16.1524738 C12.0087482,15.7911133 11.9010124,15.2492007 12.0958704,14.7792621 C12.2898201,14.3074988 12.7499159,14 13.2607815,14 L35.7388571,14 C36.2497124,14 36.7097959,14.3074974 36.9037635,14.7792501 Z" class="svg-main-color" fill="#1D00FF"></path>
            </g>
        </g>
    </g>
</svg>